# xmcd
#
# Track frame offsets:
#	150
#	12543
#	26266
#	45648
#	66443
#	84068
#	99024
#	122461
#	148088
#	163731
#	184973
#	202638
#	218804
#	251683
#
# Disc length: 3677 seconds
# Revision: 0
# Processed by: cddbd v1.5.2PL0 Copyright (c) Steve Scherf et al.
# Submitted via: dBpowerAMP V12.0
#
DISCID=b30e5b0e
DTITLE=O'Connor Band with Mark O'Connor - O'Connor Band Live!
DYEAR=2017
DGENRE=Country
TTITLE0=Emily's Reel
TTITLE1=Gold Rush
TTITLE2=Blue Moon of Kentucky - String Quartet No. 2
TTITLE3=Butterfly's Day Out
TTITLE4=Ruby, Are You Mad at Your Man?
TTITLE5=Coming Home
TTITLE6=Shady Grove
TTITLE7=Macedonia
TTITLE8=Faded Love
TTITLE9=Old Black Creek
TTITLE10=Little Maggie
TTITLE11=Swing Low, Sweet Chariot
TTITLE12=Those Memories of You - Johnny B. Goode
TTITLE13=A Bowl of Bula
EXTD=
EXTT0=
EXTT1=
EXTT2=
EXTT3=
EXTT4=
EXTT5=
EXTT6=
EXTT7=
EXTT8=
EXTT9=
EXTT10=
EXTT11=
EXTT12=
EXTT13=
PLAYORDER=
